<!-- Generated by IcoMoon.io -->
<svg version="1.1" xmlns="http://www.w3.org/2000/svg" width="32" height="32" viewBox="0 0 32 32">
<path fill="#3f59a8" d="M21.977 23.063h-11.953c-0.073 0-0.144 0.023-0.204 0.065s-0.105 0.102-0.129 0.171c-0.024 0.069-0.027 0.144-0.007 0.214s0.061 0.133 0.117 0.179c1.755 1.42 3.943 2.195 6.201 2.195s4.446-0.775 6.201-2.195c0.057-0.046 0.098-0.109 0.117-0.179s0.017-0.145-0.008-0.214-0.070-0.129-0.13-0.171c-0.060-0.042-0.131-0.065-0.205-0.064z"></path>
<path fill="#3f59a8" d="M24.928 17.415h-17.855c-0.107 0-0.212 0.025-0.309 0.071s-0.18 0.115-0.247 0.199c-0.066 0.084-0.112 0.182-0.135 0.286s-0.022 0.213 0.003 0.317c0.123 0.517 0.287 1.023 0.492 1.513 0.054 0.129 0.145 0.24 0.261 0.318s0.253 0.12 0.393 0.12h16.937c0.14-0 0.277-0.042 0.393-0.12s0.207-0.188 0.261-0.318c0.205-0.49 0.37-0.996 0.493-1.513 0.025-0.104 0.026-0.212 0.003-0.317s-0.069-0.202-0.135-0.286c-0.066-0.084-0.15-0.152-0.247-0.199s-0.202-0.071-0.309-0.071z"></path>
<path fill="#3f59a8" d="M10.023 8.945h11.953c0.073-0 0.144-0.023 0.204-0.065s0.105-0.102 0.129-0.171c0.024-0.069 0.027-0.144 0.007-0.214s-0.061-0.133-0.117-0.179c-1.755-1.42-3.944-2.195-6.201-2.195s-4.446 0.775-6.201 2.195c-0.057 0.046-0.098 0.109-0.117 0.179s-0.017 0.145 0.008 0.214c0.025 0.069 0.070 0.128 0.13 0.171s0.131 0.065 0.204 0.064z"></path>
<path fill="#3f59a8" d="M27.176 0.945h-22.353c-1.029 0.001-2.016 0.41-2.744 1.138s-1.137 1.715-1.138 2.744v22.353c0.001 1.029 0.41 2.016 1.138 2.744s1.715 1.137 2.744 1.138h22.353c1.029-0.001 2.016-0.41 2.744-1.138s1.137-1.715 1.138-2.744v-22.353c-0.001-1.029-0.41-2.016-1.138-2.744s-1.715-1.137-2.744-1.138zM4.706 3.651c0.209 0 0.414 0.062 0.588 0.178s0.31 0.282 0.39 0.475c0.080 0.194 0.101 0.406 0.060 0.612s-0.142 0.394-0.29 0.542c-0.148 0.148-0.337 0.249-0.542 0.29s-0.418 0.020-0.612-0.060c-0.193-0.080-0.359-0.216-0.475-0.39s-0.178-0.379-0.178-0.588c0-0.281 0.112-0.55 0.31-0.749s0.468-0.31 0.749-0.31zM4.706 28.357c-0.209 0-0.414-0.062-0.588-0.178s-0.31-0.282-0.39-0.475-0.101-0.406-0.060-0.612c0.041-0.205 0.142-0.394 0.29-0.542s0.337-0.249 0.542-0.29c0.205-0.041 0.418-0.020 0.612 0.060s0.359 0.216 0.475 0.39 0.178 0.379 0.178 0.588c0 0.281-0.112 0.55-0.31 0.749s-0.468 0.31-0.749 0.31zM27.294 28.357c-0.209 0-0.414-0.062-0.588-0.178s-0.31-0.282-0.39-0.475-0.101-0.406-0.060-0.612c0.041-0.205 0.142-0.394 0.29-0.542s0.337-0.249 0.542-0.29c0.205-0.041 0.418-0.020 0.612 0.060s0.359 0.216 0.475 0.39 0.178 0.379 0.178 0.588c0 0.281-0.112 0.55-0.31 0.749s-0.468 0.31-0.749 0.31zM16 28.357c-2.443 0-4.832-0.725-6.863-2.082s-3.615-3.287-4.55-5.544c-0.935-2.257-1.18-4.741-0.703-7.137s1.653-4.597 3.381-6.325c1.728-1.728 3.929-2.904 6.325-3.381s4.88-0.232 7.137 0.703c2.257 0.935 4.186 2.518 5.544 4.55s2.082 4.42 2.082 6.863c0 3.276-1.301 6.418-3.618 8.735s-5.459 3.618-8.735 3.618zM27.294 5.768c-0.209 0-0.414-0.062-0.588-0.178s-0.31-0.282-0.39-0.475c-0.080-0.193-0.101-0.406-0.060-0.612s0.142-0.394 0.29-0.542c0.148-0.148 0.337-0.249 0.542-0.29s0.418-0.020 0.612 0.060c0.193 0.080 0.359 0.216 0.475 0.39s0.178 0.379 0.178 0.588c0 0.281-0.112 0.55-0.31 0.749s-0.468 0.31-0.749 0.31z"></path>
<path fill="#3f59a8" d="M7.532 11.768c-0.14 0-0.277 0.042-0.393 0.12s-0.207 0.188-0.261 0.318c-0.205 0.49-0.37 0.996-0.492 1.513-0.025 0.104-0.026 0.212-0.003 0.317s0.069 0.202 0.135 0.286c0.066 0.084 0.15 0.152 0.247 0.199s0.202 0.071 0.309 0.071h17.855c0.107-0 0.212-0.025 0.309-0.071s0.181-0.115 0.247-0.199c0.066-0.084 0.112-0.182 0.135-0.286s0.022-0.213-0.003-0.317c-0.123-0.517-0.288-1.023-0.493-1.513-0.054-0.129-0.145-0.24-0.261-0.318s-0.253-0.12-0.393-0.12h-16.937z"></path>
</svg>
