<!-- Generated by IcoMoon.io -->
<svg version="1.1" xmlns="http://www.w3.org/2000/svg" width="32" height="32" viewBox="0 0 32 32">
<path fill="#3f59a8" d="M27.047 27.998c-1.185-0.834-2.606-1.267-4.055-1.237-1.452-0.028-2.876 0.405-4.066 1.237-0.85 0.615-1.877 0.936-2.926 0.914-1.049 0.025-2.077-0.296-2.926-0.914-1.193-0.834-2.621-1.267-4.077-1.237-1.449-0.027-2.868 0.406-4.055 1.237-0.573 0.408-1.224 0.695-1.912 0.841s-1.399 0.149-2.089 0.009v2.215h30.118v-2.215c-0.691 0.139-1.404 0.136-2.094-0.010s-1.343-0.432-1.918-0.839z"></path>
<path fill="#3f59a8" d="M11.697 16.998v7.99c0.883 0.275 1.723 0.673 2.495 1.183 0.512 0.408 1.153 0.618 1.807 0.591 0.656 0.027 1.299-0.187 1.807-0.602 0.774-0.506 1.614-0.904 2.495-1.183v-7.979c1.64-0.947 2.923-2.408 3.647-4.158s0.852-3.689 0.362-5.519c-0.49-1.829-1.571-3.446-3.073-4.598s-3.344-1.778-5.238-1.778c-1.894 0-3.736 0.625-5.238 1.778s-2.583 2.769-3.073 4.598c-0.49 1.829-0.363 3.769 0.362 5.519s2.007 3.211 3.647 4.158zM14.924 13.858c0.285 0 0.559 0.113 0.761 0.315s0.315 0.475 0.315 0.76v1.075c0 0.285-0.113 0.559-0.315 0.76s-0.475 0.315-0.761 0.315c-0.285 0-0.559-0.113-0.761-0.315s-0.315-0.475-0.315-0.76v-1.075c0-0.285 0.113-0.559 0.315-0.76s0.475-0.315 0.761-0.315zM18.151 21.385c0 0.285-0.113 0.559-0.315 0.76s-0.475 0.315-0.761 0.315-0.559-0.113-0.761-0.315c-0.202-0.202-0.315-0.475-0.315-0.76v-1.075c0-0.285 0.113-0.559 0.315-0.76s0.475-0.315 0.761-0.315 0.559 0.113 0.761 0.315c0.202 0.202 0.315 0.475 0.315 0.76v1.075zM16 4.18c1.426 0 2.794 0.566 3.803 1.575s1.575 2.376 1.575 3.802c-0.010 1.214-0.431 2.389-1.194 3.334-0.225-0.94-0.761-1.777-1.52-2.375s-1.698-0.924-2.665-0.924-1.905 0.326-2.665 0.924c-0.759 0.599-1.294 1.435-1.52 2.375-0.769-0.941-1.191-2.118-1.194-3.334 0-1.426 0.567-2.794 1.575-3.802s2.377-1.575 3.803-1.575z"></path>
</svg>
