<!-- Generated by IcoMoon.io -->
<svg version="1.1" xmlns="http://www.w3.org/2000/svg" width="32" height="32" viewBox="0 0 32 32">
<path fill="#3f59a8" d="M28.805 20.625c-0.091-0.505-0.662-8.394-3.422-19.014h-2.405v7.766c0 1.667-0.646 3.231-1.826 4.406-3.92 3.922-10.652 1.109-10.652-4.406v-7.766h-2.402c-2.75 10.584-3.336 18.549-3.422 19.014-0.764 4.255 2.496 8.198 6.855 8.198h10.414c2.072 0 4.022-0.91 5.348-2.499 1.983-2.37 1.604-5.162 1.507-5.699h0.005z"></path>
<path fill="#3f59a8" d="M16.743 14.477c2.71 0 4.91-2.192 4.91-4.903v-1.359c-2.703 2.689-7.114 2.689-9.82 0v1.359c0 2.71 2.199 4.903 4.91 4.903z"></path>
</svg>
